<?xml version="1.0" encoding="UTF-8" standalone="no"?>
<!-- Created with Inkscape (http://www.inkscape.org/) -->

<svg
   xmlns:dc="http://purl.org/dc/elements/1.1/"
   xmlns:cc="http://creativecommons.org/ns#"
   xmlns:rdf="http://www.w3.org/1999/02/22-rdf-syntax-ns#"
   xmlns:svg="http://www.w3.org/2000/svg"
   xmlns="http://www.w3.org/2000/svg"
   xmlns:sodipodi="http://sodipodi.sourceforge.net/DTD/sodipodi-0.dtd"
   xmlns:inkscape="http://www.inkscape.org/namespaces/inkscape"
   width="162.65265mm"
   height="131.99185mm"
   viewBox="0 0 576.32828 467.68766"
   id="svg2"
   version="1.1"
   inkscape:version="0.91 r13725"
   sodipodi:docname="logo4.svg">
  <sodipodi:namedview
     id="base"
     pagecolor="#ffffff"
     bordercolor="#666666"
     borderopacity="1.0"
     inkscape:pageopacity="0.0"
     inkscape:pageshadow="2"
     inkscape:zoom="1.0877439"
     inkscape:cx="208.84549"
     inkscape:cy="202.4345"
     inkscape:document-units="px"
     inkscape:current-layer="layer1"
     showgrid="false"
     showborder="false"
     inkscape:snap-bbox="true"
     inkscape:snap-nodes="false"
     inkscape:snap-global="true"
     inkscape:object-paths="false"
     inkscape:bbox-paths="true"
     inkscape:bbox-nodes="true"
     inkscape:window-width="1535"
     inkscape:window-height="876"
     inkscape:window-x="65"
     inkscape:window-y="24"
     inkscape:window-maximized="1"
     inkscape:object-nodes="true"
     fit-margin-top="1"
     fit-margin-left="1"
     fit-margin-right="1"
     fit-margin-bottom="1" />
  <defs
     id="defs4" />
  <metadata
     id="metadata7">
    <rdf:RDF>
      <cc:Work
         rdf:about="">
        <dc:format>image/svg+xml</dc:format>
        <dc:type
           rdf:resource="http://purl.org/dc/dcmitype/StillImage" />
        <dc:title></dc:title>
      </cc:Work>
    </rdf:RDF>
  </metadata>
  <g
     id="layer1"
     inkscape:groupmode="layer"
     inkscape:label="Livello 1"
     transform="translate(198.25053,-176.57737)">
    <g
       id="text4254"
       style="font-style:normal;font-variant:normal;font-weight:bold;font-stretch:normal;font-size:253.15478516px;line-height:125%;font-family:xscale;-inkscape-font-specification:'xscale Bold';letter-spacing:0px;word-spacing:0px;fill:#ff6600;fill-opacity:1;stroke:#000000;stroke-width:4;stroke-linecap:butt;stroke-linejoin:miter;stroke-miterlimit:4;stroke-dasharray:none;stroke-opacity:1"
       transform="matrix(1.0259631,0,0,0.97469393,36.796703,-4.0885226)">
      <path
         id="path4357"
         d="m 81.460648,354.48977 c 0,0 171.117912,-55.42719 171.117912,-55.42719 46.90024,-15.19156 70.30292,-2.50212 70.22579,38.02206 0,0 -0.11392,59.8546 -0.11392,59.8546 -0.0369,19.37205 -6.96982,36.8263 -20.79661,52.3695 -9.73974,10.89861 -21.35717,19.36812 -34.85431,25.41018 -5.33632,2.28605 -9.574,3.93899 -12.71296,4.95878 0,0 -11.30063,2.84271 -11.30063,2.84271 0,0 82.61276,91.38174 82.61276,91.38174 0,0 -85.97282,27.98515 -85.97282,27.98515 0,0 -76.72445,-85.88859 -76.72445,-85.88859 -4.7181,-5.09873 -6.60995,-12.22302 -5.67441,-21.37377 2.4946,-26.25899 17.10791,-43.73471 43.83267,-52.40928 0,0 29.70267,-9.64118 29.70267,-9.64118 12.88394,-4.18199 19.32917,-11.80886 19.33701,-22.88406 0,0 0.0194,-27.42852 0.0194,-27.42852 0.007,-9.98014 -5.96466,-13.86562 -17.91684,-11.65369 -0.94352,-0.24865 -2.51635,-0.016 -4.71851,0.6981 0,0 -72.70044,23.57353 -72.70044,23.57353 0,0 0.2021,234.559 0.2021,234.559 0,0 -72.946592,23.74496 -72.946592,23.74496 0,0 -0.61786,-298.69403 -0.61786,-298.69403 0,0 0,0 0,0"
         inkscape:connector-curvature="0"
         style="stroke:#000000;fill:#ff6600;stroke-opacity:1" />
    </g>
    <path
       id="path4285"
       d="m -7.5600415,307.60904 c 21.7779955,6.73547 42.6745745,11.26311 63.1181935,13.51753 20.444267,2.25449 40.743572,2.19391 60.020528,-0.41739 0,0 0.17046,-0.0235 0.17046,-0.0235 0,0 0.17227,-0.0264 0.17227,-0.0264 6.4842,-0.9882 12.33713,-2.27538 17.31232,-3.84309 0,0 53.15407,-16.74907 53.15407,-16.74907 11.76292,-3.70654 16.95378,-8.76055 16.41112,-14.51143 0,0 0.002,-0.003 0.002,-0.003 0,0 -0.002,-0.004 -0.002,-0.004 -1.08642,-10.16827 -16.82366,-19.73434 -46.20946,-28.79004 0,0 -71.232615,-21.95147 -71.232615,-21.95147 -5.287416,-1.90688 -8.149414,-3.55663 -8.902779,-4.65863 -0.756575,-1.10672 -0.331263,-1.34063 1.249194,-1.83515 0,0 18.136405,-5.67486 18.136405,-5.67486 1.405707,-0.43985 2.8527,-0.67494 7.328915,-0.47443 4.40774,0.19743 10.77255,1.01616 18.31544,2.51157 0,0 153.27341,47.19796 153.27341,47.19796 0,0 64.59008,-20.35214 64.59008,-20.35214 0,0 -173.49467,-53.34849 -173.49467,-53.34849 -20.93825,-6.43837 -42.07109,-11.04537 -63.57624,-13.78499 0,0 -0.0332,-0.003 -0.0332,-0.003 0,0 -0.0369,-0.005 -0.0369,-0.005 -16.098404,-1.96341 -31.157123,-2.69238 -45.395286,-2.00836 -14.241113,0.68417 -27.582017,2.8712 -38.768966,6.35804 0,0 -50.983243,15.89088 -50.983243,15.89088 -10.562495,3.29221 -17.031591,7.2539 -18.742752,11.45197 -1.709377,4.19366 0.987724,8.60995 7.514208,13.33303 8.23279,6.44022 21.803906,12.54414 40.5793466,18.3384 0,0 62.0062974,19.13567 62.0062974,19.13567 0,0 5.365779,1.65592 5.365779,1.65592 5.514967,1.98205 8.919048,3.74113 10.327256,5.1173 1.414541,1.38234 0.946496,2.21375 -0.156055,2.83063 0,0 -0.710801,0.39438 -0.710801,0.39438 -0.200958,0.0737 -0.286443,0.11305 -0.721696,0.24967 0,0 -16.800954,5.27349 -16.800954,5.27349 -1.884508,0.59151 -2.716102,0.72096 -6.327237,0.47625 -3.61118,-0.2447 -9.005228,-1.18932 -15.18515,-2.96001 0,0 -155.794837,-47.66659 -155.794837,-47.66659 0,0 -64.56354,20.12371 -64.56354,20.12371 0,0 178.5912685,55.23441 178.5912685,55.23441 0,0 0,0 0,0"
       style="color:#000000;font-style:normal;font-variant:normal;font-weight:bold;font-stretch:normal;font-size:268.05960083px;line-height:125%;font-family:xscale;-inkscape-font-specification:'xscale Bold';text-indent:0;text-align:start;text-decoration:none;text-decoration-line:none;text-decoration-style:solid;text-decoration-color:#000000;letter-spacing:0px;word-spacing:0px;text-transform:none;direction:ltr;block-progression:tb;writing-mode:lr-tb;baseline-shift:baseline;text-anchor:start;white-space:normal;clip-rule:nonzero;display:inline;overflow:visible;visibility:visible;opacity:1;isolation:auto;mix-blend-mode:normal;color-interpolation:sRGB;color-interpolation-filters:linearRGB;solid-color:#000000;solid-opacity:1;fill:#ff6600;fill-opacity:1;fill-rule:nonzero;stroke:#000000;stroke-width:4;stroke-linecap:butt;stroke-linejoin:miter;stroke-miterlimit:4;stroke-dasharray:none;stroke-dashoffset:0;stroke-opacity:1;color-rendering:auto;image-rendering:auto;shape-rendering:auto;text-rendering:auto;enable-background:accumulate"
       inkscape:connector-curvature="0" />
    <path
       id="path4268"
       d="m -141.29013,273.90273 c -14.8573,-4.63334 -27.02222,-3.43926 -36.47365,4.22623 -9.42243,7.64196 -14.98484,21.42966 -14.94321,40.03725 0,0 0.53256,238.05703 0.53256,238.05703 0,0 3.38125,1.04857 3.38125,1.04857 0,0 56.04187,17.37935 56.04187,17.37935 0,0 -0.30674,-176.96229 -0.30674,-176.96229 0,0 33.347253,151.45245 33.347253,151.45245 6.606306,30.06548 20.367181,48.2616 39.327678,54.14082 14.901295,4.62056 26.183824,1.00186 33.248577,-12.6981 2.666525,-4.4677 4.81499,-10.25559 6.384689,-17.20604 0,0 33.283293,-130.64331 33.283293,-130.64331 0,0 0.08852,176.99871 0.08852,176.99871 0,0 58.927181,18.27413 58.927181,18.27413 0,0 0,-237.52463 0,-237.52463 0,-18.56592 -5.580252,-35.80285 -14.999456,-49.30331 -9.439315,-13.52927 -21.47404,-22.2762 -36.069236,-26.82779 -5.091344,-1.58777 -10.181245,-2.64598 -15.2711049,-3.17445 0,0 -0.026209,-0.002 -0.026209,-0.002 0,0 -0.026209,-0.002 -0.026209,-0.002 -17.6270611,-1.21899 -29.6979821,7.3612 -34.6866841,28.27626 0,0 -0.0076,0.0172 -0.0076,0.0172 0,0 -32.238565,136.8961 -32.238565,136.8961 0,0 -29.284045,-155.78708 -29.284045,-155.78708 -4.56287,-24.28648 -16.891082,-40.40946 -35.247712,-50.40519 0,0 -0.0192,-0.006 -0.0192,-0.006 0,0 -0.0192,-0.0125 -0.0192,-0.0125 -5.09533,-2.64757 -10.07701,-4.73172 -14.94527,-6.24992 0,0 0.001,-2.1e-4 0.001,-2.1e-4"
       style="color:#000000;font-style:normal;font-variant:normal;font-weight:bold;font-stretch:normal;font-size:210.5135498px;line-height:125%;font-family:xscale;-inkscape-font-specification:'xscale Bold';text-indent:0;text-align:start;text-decoration:none;text-decoration-line:none;text-decoration-style:solid;text-decoration-color:#000000;letter-spacing:0px;word-spacing:0px;text-transform:none;direction:ltr;block-progression:tb;writing-mode:lr-tb;baseline-shift:baseline;text-anchor:start;white-space:normal;clip-rule:nonzero;display:inline;overflow:visible;visibility:visible;opacity:1;isolation:auto;mix-blend-mode:normal;color-interpolation:sRGB;color-interpolation-filters:linearRGB;solid-color:#000000;solid-opacity:1;fill:#ff6600;fill-opacity:1;fill-rule:nonzero;stroke:#000000;stroke-width:4;stroke-linecap:butt;stroke-linejoin:miter;stroke-miterlimit:4;stroke-dasharray:none;stroke-dashoffset:0;stroke-opacity:1;color-rendering:auto;image-rendering:auto;shape-rendering:auto;text-rendering:auto;enable-background:accumulate"
       inkscape:connector-curvature="0" />
  </g>
</svg>
